<mxfile host="app.diagrams.net" modified="2023-06-09T06:32:33.770Z" agent="Mozilla/5.0 (Windows NT 10.0; Win64; x64) AppleWebKit/537.36 (KHTML, like Gecko) Chrome/114.0.0.0 Safari/537.36" version="21.3.8" etag="XlYDPu3La0iFs_DmG5gi" type="github">
  <diagram name="페이지-1" id="5ueZ2DrWYhjqE-rU4VgV">
    <mxGraphModel>
      <root>
        <mxCell id="0" />
        <mxCell id="1" parent="0" />
      </root>
    </mxGraphModel>
  </diagram>
</mxfile>
